<svg xmlns="http://www.w3.org/2000/svg" width="1024" height="1024" viewBox="0 0 1024 1024" version="1.1"><path d="M 380 221.941 C 363.057 222.453, 361.205 222.689, 358 224.747 C 354.639 226.904, 349.482 229.435, 341.983 232.606 C 338.388 234.127, 328.982 242.738, 323.370 249.647 C 318.406 255.759, 310.092 272.814, 308.829 279.477 C 307.354 287.260, 306.723 716.504, 308.178 722.361 C 308.892 725.235, 311.277 728.347, 317.513 734.541 C 324.745 741.725, 326.484 742.950, 330.250 743.515 C 332.648 743.874, 349.436 744.018, 367.555 743.834 L 400.500 743.500 406.248 740.677 C 411.239 738.226, 412.557 736.927, 416.248 730.813 C 418.587 726.941, 421.085 722.811, 421.800 721.636 C 422.825 719.952, 422.969 713.581, 422.481 691.500 C 422.021 670.653, 422.263 658.007, 423.428 642 C 425.113 618.858, 425.860 614.776, 429.599 608.302 C 430.932 605.994, 432.894 601.306, 433.959 597.885 C 435.157 594.035, 437.184 590.300, 439.279 588.083 C 449.197 577.582, 457.838 569.303, 460.500 567.749 C 462.150 566.786, 464.996 564.895, 466.825 563.548 C 468.654 562.201, 472.651 560.371, 475.708 559.482 C 478.765 558.594, 483.597 556.551, 486.446 554.943 C 494.015 550.672, 513.202 548.597, 537.068 549.471 C 547.183 549.841, 562.882 549.618, 574.068 548.946 C 592.917 547.813, 593.903 547.644, 606.931 543.338 C 614.318 540.896, 622.284 537.600, 624.633 536.015 C 626.982 534.430, 631.404 532.344, 634.460 531.381 C 637.758 530.341, 641.192 528.385, 642.910 526.565 C 644.503 524.879, 649.298 520.575, 653.566 517 C 663.575 508.618, 670.212 501.767, 674.469 495.424 C 676.343 492.632, 678.647 489.708, 679.589 488.926 C 680.531 488.145, 684.169 483.142, 687.674 477.809 C 695.162 466.418, 696.935 460.067, 694.946 451.774 C 693.821 447.086, 693.431 446.639, 688.624 444.528 C 685.806 443.291, 680.615 441.260, 677.089 440.017 L 670.679 437.756 603.089 437.882 C 533.943 438.012, 527.662 438.269, 506 441.858 C 499.125 442.997, 491.416 444.190, 488.869 444.508 C 486.174 444.845, 481.787 446.563, 478.376 448.617 C 475.151 450.559, 471.160 452.405, 469.506 452.719 C 465.598 453.463, 457.265 457.628, 453.673 460.634 C 452.119 461.935, 450.165 463, 449.333 463 C 448.500 463, 445.497 465.271, 442.660 468.047 C 439.822 470.824, 435.665 474.874, 433.423 477.047 C 428.470 481.850, 424.475 482.380, 422.975 478.435 C 421.796 475.332, 421.770 421.057, 422.933 388 C 423.831 362.464, 424.279 360.269, 430.060 353.075 C 431.804 350.905, 436.216 347.188, 439.865 344.815 L 446.500 340.500 504.500 339.883 C 536.400 339.543, 587.983 339.205, 619.129 339.133 C 689.168 338.969, 690.182 338.846, 715.860 327.422 C 717.708 326.600, 726.312 321.213, 734.980 315.452 C 746.571 307.747, 752.158 303.325, 756.098 298.738 C 759.045 295.307, 763.513 290.475, 766.028 288 C 771.308 282.804, 780.972 270.111, 783.539 265 C 784.505 263.075, 786.293 260.150, 787.510 258.500 C 790.820 254.014, 792 249.509, 792 241.354 C 792 234.336, 791.840 233.829, 788.436 230.061 C 786.476 227.892, 782.868 225.146, 780.418 223.960 L 775.963 221.803 587.231 221.593 C 483.429 221.477, 390.175 221.634, 380 221.941" stroke="none" fill="#f4f6f2" fill-rule="evenodd"/><path d="M 351.500 17.018 C 246.456 17.818, 241.414 18.135, 216.090 25.531 C 200.423 30.107, 194.362 32.602, 177.173 41.550 C 129.677 66.273, 97.334 103.025, 75.990 156.526 C 62.631 190.011, 61.440 206.580, 62.550 343.500 C 62.946 392.450, 63.369 495.725, 63.489 573 C 63.609 650.275, 64.006 716.200, 64.372 719.500 C 64.737 722.800, 65.484 734.500, 66.032 745.500 C 67.093 766.817, 69.841 788.538, 73.093 801.332 C 81.322 833.700, 116.402 882.907, 148.316 906.848 C 160.793 916.209, 168.988 921.114, 185.573 929.149 C 212.629 942.257, 234.412 947.455, 269 949.055 C 319.860 951.407, 392.030 952.026, 578 951.702 C 817.752 951.285, 819.541 951.214, 850.500 940.875 C 865.317 935.927, 882.725 927.634, 898.500 918.009 C 930.055 898.755, 948.821 879.202, 970.693 842.785 C 981.410 824.940, 984.468 818.131, 989.951 799.895 C 998.557 771.275, 999.497 751.462, 998.607 617.500 C 998.242 562.500, 997.772 451.125, 997.563 370 C 997.314 273.484, 996.803 218.525, 996.084 211 C 994.490 194.295, 991.274 176.183, 987.868 164.718 C 982.638 147.111, 968.736 120.461, 955.412 102.500 C 932.722 71.911, 896.767 44.146, 860.939 29.546 C 849.756 24.989, 829.559 20.514, 810.500 18.370 C 806.650 17.937, 763.450 17.535, 714.500 17.478 C 665.550 17.420, 584.325 17.137, 534 16.849 C 483.675 16.561, 401.550 16.637, 351.500 17.018 M 380 221.941 C 363.057 222.453, 361.205 222.689, 358 224.747 C 354.639 226.904, 349.482 229.435, 341.983 232.606 C 338.388 234.127, 328.982 242.738, 323.370 249.647 C 318.406 255.759, 310.092 272.814, 308.829 279.477 C 307.354 287.260, 306.723 716.504, 308.178 722.361 C 308.892 725.235, 311.277 728.347, 317.513 734.541 C 324.745 741.725, 326.484 742.950, 330.250 743.515 C 332.648 743.874, 349.436 744.018, 367.555 743.834 L 400.500 743.500 406.248 740.677 C 411.239 738.226, 412.557 736.927, 416.248 730.813 C 418.587 726.941, 421.085 722.811, 421.800 721.636 C 422.825 719.952, 422.969 713.581, 422.481 691.500 C 422.021 670.653, 422.263 658.007, 423.428 642 C 425.113 618.858, 425.860 614.776, 429.599 608.302 C 430.932 605.994, 432.894 601.306, 433.959 597.885 C 435.157 594.035, 437.184 590.300, 439.279 588.083 C 449.197 577.582, 457.838 569.303, 460.500 567.749 C 462.150 566.786, 464.996 564.895, 466.825 563.548 C 468.654 562.201, 472.651 560.371, 475.708 559.482 C 478.765 558.594, 483.597 556.551, 486.446 554.943 C 494.015 550.672, 513.202 548.597, 537.068 549.471 C 547.183 549.841, 562.882 549.618, 574.068 548.946 C 592.917 547.813, 593.903 547.644, 606.931 543.338 C 614.318 540.896, 622.284 537.600, 624.633 536.015 C 626.982 534.430, 631.404 532.344, 634.460 531.381 C 637.758 530.341, 641.192 528.385, 642.910 526.565 C 644.503 524.879, 649.298 520.575, 653.566 517 C 663.575 508.618, 670.212 501.767, 674.469 495.424 C 676.343 492.632, 678.647 489.708, 679.589 488.926 C 680.531 488.145, 684.169 483.142, 687.674 477.809 C 695.162 466.418, 696.935 460.067, 694.946 451.774 C 693.821 447.086, 693.431 446.639, 688.624 444.528 C 685.806 443.291, 680.615 441.260, 677.089 440.017 L 670.679 437.756 603.089 437.882 C 533.943 438.012, 527.662 438.269, 506 441.858 C 499.125 442.997, 491.416 444.190, 488.869 444.508 C 486.174 444.845, 481.787 446.563, 478.376 448.617 C 475.151 450.559, 471.160 452.405, 469.506 452.719 C 465.598 453.463, 457.265 457.628, 453.673 460.634 C 452.119 461.935, 450.165 463, 449.333 463 C 448.500 463, 445.497 465.271, 442.660 468.047 C 439.822 470.824, 435.665 474.874, 433.423 477.047 C 428.470 481.850, 424.475 482.380, 422.975 478.435 C 421.796 475.332, 421.770 421.057, 422.933 388 C 423.831 362.464, 424.279 360.269, 430.060 353.075 C 431.804 350.905, 436.216 347.188, 439.865 344.815 L 446.500 340.500 504.500 339.883 C 536.400 339.543, 587.983 339.205, 619.129 339.133 C 689.168 338.969, 690.182 338.846, 715.860 327.422 C 717.708 326.600, 726.312 321.213, 734.980 315.452 C 746.571 307.747, 752.158 303.325, 756.098 298.738 C 759.045 295.307, 763.513 290.475, 766.028 288 C 771.308 282.804, 780.972 270.111, 783.539 265 C 784.505 263.075, 786.293 260.150, 787.510 258.500 C 790.820 254.014, 792 249.509, 792 241.354 C 792 234.336, 791.840 233.829, 788.436 230.061 C 786.476 227.892, 782.868 225.146, 780.418 223.960 L 775.963 221.803 587.231 221.593 C 483.429 221.477, 390.175 221.634, 380 221.941" stroke="none" fill="#053683" fill-rule="evenodd"/></svg>